<?xml version="1.0" encoding="utf-8"?>
<!-- Generator: Adobe Illustrator 22.0.1, SVG Export Plug-In . SVG Version: 6.00 Build 0)  -->
<svg version="1.1" id="Шар_1" xmlns="http://www.w3.org/2000/svg" xmlns:xlink="http://www.w3.org/1999/xlink" x="0px" y="0px"
	 viewBox="0 0 448 512" style="enable-background:new 0 0 448 512;" xml:space="preserve">
<style type="text/css">
	.st0{fill:#FFFFFF;}
</style>
<path class="st0" d="M432,80h-82.4l-34-56.8C306.1,8.8,291.4,0,274.6,0H173.4c-16.8,0-32.4,8.8-41,23.3L98.4,80H16
	C7.1,80,0,87.1,0,96v16c0,8.9,7.1,16,16,16h16v320c0,35.4,28.7,64,64,64h256c35.4,0,64-28.6,64-64V128h16c8.9,0,16-7.1,16-16V96
	C448,87.1,440.9,80,432,80z M171.9,50.9c1-1.8,3-2.9,5.1-2.9h94c2.1,0,4.1,1.1,5.1,2.9L293.6,80H154.4L171.9,50.9z M352,464H96
	c-8.8,0-16-7.2-16-16V128h288v320C368,456.8,360.8,464,352,464z M224,416c8.8,0,16-7.2,16-16V192c0-8.8-7.2-16-16-16s-16,7.2-16,16
	v208C208,408.8,215.2,416,224,416z M144,416c8.8,0,16-7.2,16-16V192c0-8.8-7.2-16-16-16s-16,7.2-16,16v208
	C128,408.8,135.2,416,144,416z M304,416c8.8,0,16-7.2,16-16V192c0-8.8-7.2-16-16-16s-16,7.2-16,16v208C288,408.8,295.2,416,304,416z
	"/>
</svg>
